<svg width="16" height="16" viewBox="0 0 32 32" fill="none" xmlns="http://www.w3.org/2000/svg">
<path d="M6.94687 2.09334C8.48549 1.60374 10.1274 1.53662 11.7009 1.89902C13.2743 2.26142 14.7214 3.04001 15.8909 4.15334C15.9212 4.18033 15.9603 4.19524 16.0009 4.19524C16.0414 4.19524 16.0806 4.18033 16.1109 4.15334C17.1124 3.19762 18.3212 2.48619 19.643 2.07451C20.9648 1.66283 22.3638 1.56204 23.7309 1.78001L23.7362 1.78134C25.5563 2.07915 27.2423 2.92478 28.5695 4.20547C29.8966 5.48615 30.8018 7.14101 31.1642 8.94934V8.95334C31.4256 10.2785 31.3827 11.6458 31.0385 12.952C30.6944 14.2581 30.058 15.469 29.1775 16.4933L18.5722 29.1333C18.2571 29.5087 17.8636 29.8105 17.4194 30.0176C16.9752 30.2247 16.491 30.332 16.0009 30.332C15.5108 30.332 15.0266 30.2247 14.5824 30.0176C14.1382 29.8105 13.7447 29.5087 13.4295 29.1333L2.82687 16.4933C1.94497 15.4695 1.30747 14.2586 0.962588 12.952C0.61771 11.6455 0.574492 10.2777 0.836206 8.95201C1.14593 7.36579 1.87664 5.89209 2.95175 4.68538C4.02686 3.47867 5.40678 2.58337 6.94687 2.09334ZM11.1069 4.49734C10.2773 4.30569 9.41769 4.283 8.5792 4.43065C7.7407 4.57829 6.94051 4.89323 6.22633 5.35671C5.51214 5.82018 4.89857 6.4227 4.4222 7.12835C3.94582 7.834 3.61639 8.62833 3.45354 9.46401L3.45221 9.46667C3.26822 10.3971 3.29855 11.3571 3.54089 12.2741C3.78323 13.191 4.23122 14.0407 4.85087 14.7587L4.86287 14.772L15.4735 27.4187C15.5384 27.4951 15.6191 27.5565 15.71 27.5986C15.801 27.6407 15.9 27.6625 16.0002 27.6625C16.1004 27.6625 16.1995 27.6407 16.2904 27.5986C16.3813 27.5565 16.462 27.4951 16.5269 27.4187L27.1509 14.7587C27.7694 14.0411 28.2167 13.1923 28.459 12.2764C28.7013 11.3605 28.7323 10.4016 28.5495 9.47201C28.2933 8.19614 27.6545 7.0286 26.7182 6.12487C25.7818 5.22115 24.5924 4.62413 23.3082 4.41334C22.3455 4.25988 21.3604 4.3312 20.4298 4.62172C19.4993 4.91224 18.6486 5.41409 17.9442 6.08801L17.9335 6.09867C17.4092 6.58899 16.7181 6.86176 16.0002 6.86176C15.2823 6.86176 14.5912 6.58899 14.0669 6.09867L14.0575 6.08934C13.2342 5.30341 12.2159 4.75352 11.1069 4.49734Z" fill="white" fill-opacity="0.698"/>
</svg>
