<svg width="16" height="16" viewBox="0 0 16 16" fill="none" xmlns="http://www.w3.org/2000/svg">
<path d="M9.7412 0.85003C9.85529 0.915897 9.95001 1.01065 10.0158 1.12476C10.0817 1.23886 10.1163 1.3683 10.1162 1.50003V14.5C10.1163 14.6317 10.0817 14.7611 10.0159 14.8752C9.95011 14.9893 9.85544 15.084 9.74141 15.1499C9.62738 15.2158 9.49802 15.2505 9.36632 15.2505C9.23463 15.2505 9.10525 15.2159 8.9912 15.15L2.0662 11.15C1.2324 10.6666 0.62422 9.87235 0.374924 8.94133C0.125628 8.01032 0.255542 7.01844 0.736202 6.18303C1.05504 5.63007 1.51372 5.1707 2.0662 4.85103L8.9912 0.85103C9.10522 0.785204 9.23455 0.750549 9.3662 0.750549C9.49786 0.750549 9.62719 0.784204 9.7412 0.85003ZM2.8172 6.15003C2.49317 6.33809 2.22422 6.60796 2.03726 6.93263C1.8503 7.2573 1.7519 7.62538 1.7519 8.00003C1.7519 8.37468 1.8503 8.74276 2.03726 9.06743C2.22422 9.3921 2.49317 9.66197 2.8172 9.85003L8.6172 13.2V2.80003L2.8172 6.15003ZM11.5002 10.44V5.56003C11.9468 5.7922 12.3211 6.14249 12.5824 6.57274C12.8436 7.00298 12.9818 7.49668 12.9818 8.00003C12.9818 8.50338 12.8436 8.99708 12.5824 9.42732C12.3211 9.85757 11.9468 10.2079 11.5002 10.44Z" fill="white" fill-opacity="0.698"/>
</svg>
